<svg width="143" height="34" viewBox="0 0 143 34" fill="none" xmlns="http://www.w3.org/2000/svg">
<path d="M0 7.73726V33.6084H3.75838V14.8746H4.00127L11.7226 33.5705H14.8418L22.5631 14.8872H22.806V33.6084H26.5643V7.73726H21.7705L13.4356 27.848H13.1288L4.79385 7.73726H0Z" fill="white"/>
<path d="M41.1313 34C45.4138 34 48.4435 31.9156 49.3128 28.7576L45.695 28.1133C45.0047 29.945 43.3428 30.8798 41.1696 30.8798C37.897 30.8798 35.6982 28.7828 35.596 25.0436H49.5557V23.7046C49.5557 16.6936 45.3115 13.9524 40.8628 13.9524C35.3914 13.9524 31.7864 18.0706 31.7864 24.033C31.7864 30.0587 35.3403 34 41.1313 34ZM35.6088 22.214C35.7622 19.4601 37.782 17.0726 40.8884 17.0726C43.8542 17.0726 45.7973 19.2454 45.8101 22.214H35.6088Z" fill="white"/>
<path d="M68.5106 18.9422C67.718 15.923 65.3275 13.9524 61.0833 13.9524C56.6474 13.9524 53.5026 16.2641 53.5026 19.7001C53.5026 22.454 55.19 24.2857 58.8717 25.0942L62.1955 25.8142C64.0874 26.2311 64.9695 27.0648 64.9695 28.2775C64.9695 29.7808 63.346 30.9556 60.8404 30.9556C58.5521 30.9556 57.082 29.9829 56.6218 28.0754L52.9273 28.6312C53.5665 32.0672 56.4556 34 60.866 34C65.6087 34 68.8941 31.5114 68.8941 27.9996C68.8941 25.2584 67.1299 23.5656 63.525 22.7445L60.4058 22.0371C58.2453 21.5318 57.3121 20.8118 57.3249 19.498C57.3121 18.0074 58.9484 16.9463 61.1216 16.9463C63.4994 16.9463 64.5988 18.2474 65.0462 19.5485L68.5106 18.9422Z" fill="white"/>
<path d="M82.2625 14.205H78.2357V9.55632H74.4134V14.205H71.5371V17.2368H74.4134V28.6944C74.4006 32.2188 77.1235 33.9242 80.1405 33.861C81.3549 33.8484 82.1731 33.621 82.6205 33.4568L81.9302 30.3366C81.6745 30.3871 81.2015 30.5008 80.5879 30.5008C79.3479 30.5008 78.2357 30.0966 78.2357 27.9112V17.2368H82.2625V14.205Z" fill="white"/>
<path d="M94.5508 34C100.086 34 103.704 29.9955 103.704 23.9951C103.704 17.9569 100.086 13.9524 94.5508 13.9524C89.0155 13.9524 85.3977 17.9569 85.3977 23.9951C85.3977 29.9955 89.0155 34 94.5508 34ZM94.5636 30.8293C90.9458 30.8293 89.2584 27.7091 89.2584 23.9825C89.2584 20.2686 90.9458 17.1105 94.5636 17.1105C98.1558 17.1105 99.8432 20.2686 99.8432 23.9825C99.8432 27.7091 98.1558 30.8293 94.5636 30.8293Z" fill="white"/>
<path d="M110.764 0.54541H111.909V7.30393C111.909 7.90715 111.798 8.41958 111.577 8.84122C111.355 9.26286 111.043 9.58293 110.64 9.80145C110.236 10.02 109.761 10.1292 109.213 10.1292C108.696 10.1292 108.236 10.0353 107.833 9.84761C107.43 9.6568 107.113 9.38596 106.882 9.03511C106.651 8.68426 106.536 8.26724 106.536 7.78405H107.662C107.662 8.0518 107.728 8.2857 107.86 8.48575C107.996 8.68272 108.181 8.8366 108.414 8.9474C108.648 9.05819 108.915 9.11359 109.213 9.11359C109.542 9.11359 109.822 9.04434 110.053 8.90585C110.284 8.76736 110.46 8.56423 110.58 8.29648C110.703 8.02564 110.764 7.69479 110.764 7.30393V0.54541Z" fill="white"/>
<path d="M116.142 10.1661C115.693 10.1661 115.285 10.0815 114.919 9.91224C114.553 9.73989 114.262 9.49214 114.047 9.16899C113.831 8.84276 113.723 8.44882 113.723 7.98717C113.723 7.58092 113.803 7.25161 113.963 6.99925C114.123 6.7438 114.337 6.54375 114.605 6.3991C114.873 6.25445 115.168 6.14674 115.491 6.07595C115.818 6.00209 116.145 5.94361 116.475 5.90052C116.906 5.84513 117.255 5.80358 117.523 5.77588C117.794 5.7451 117.991 5.69432 118.114 5.62354C118.24 5.55275 118.303 5.42964 118.303 5.25422V5.21729C118.303 4.76179 118.178 4.40786 117.929 4.1555C117.683 3.90313 117.309 3.77694 116.807 3.77694C116.287 3.77694 115.879 3.89082 115.584 4.11856C115.288 4.34631 115.081 4.58944 114.961 4.84797L113.926 4.47865C114.111 4.04778 114.357 3.71231 114.665 3.47226C114.976 3.22912 115.315 3.05985 115.681 2.96444C116.05 2.86596 116.413 2.81672 116.77 2.81672C116.998 2.81672 117.26 2.84442 117.555 2.89981C117.854 2.95213 118.141 3.06139 118.418 3.22758C118.698 3.39378 118.931 3.64461 119.115 3.98007C119.3 4.31553 119.392 4.76487 119.392 5.32808V9.99996H118.303V9.03973H118.248C118.174 9.19361 118.051 9.35827 117.878 9.53369C117.706 9.70912 117.477 9.85838 117.19 9.98149C116.904 10.1046 116.555 10.1661 116.142 10.1661ZM116.309 9.18746C116.739 9.18746 117.103 9.10282 117.398 8.93355C117.697 8.76428 117.921 8.54577 118.072 8.27801C118.226 8.01025 118.303 7.72865 118.303 7.43319V6.43604C118.257 6.49143 118.155 6.54221 117.998 6.58838C117.844 6.63147 117.666 6.66994 117.463 6.70379C117.263 6.73457 117.067 6.76227 116.876 6.78689C116.689 6.80843 116.536 6.8269 116.419 6.84229C116.136 6.87922 115.872 6.93923 115.625 7.02233C115.382 7.10235 115.185 7.22391 115.034 7.38703C114.887 7.54707 114.813 7.76558 114.813 8.04257C114.813 8.42112 114.953 8.70734 115.233 8.90123C115.516 9.09205 115.875 9.18746 116.309 9.18746Z" fill="white"/>
<path d="M121.381 12.659V2.90905H122.434V4.03547H122.563C122.643 3.91236 122.754 3.7554 122.895 3.56459C123.04 3.37069 123.246 3.19835 123.514 3.04754C123.785 2.89366 124.151 2.81672 124.612 2.81672C125.21 2.81672 125.736 2.96598 126.191 3.26452C126.647 3.56305 127.002 3.98622 127.258 4.53405C127.513 5.08187 127.641 5.72818 127.641 6.47297C127.641 7.22391 127.513 7.87484 127.258 8.42574C127.002 8.97356 126.648 9.39827 126.196 9.69988C125.744 9.99842 125.222 10.1477 124.631 10.1477C124.175 10.1477 123.811 10.0723 123.537 9.92148C123.263 9.76759 123.052 9.59371 122.904 9.39981C122.757 9.20284 122.643 9.03973 122.563 8.91047H122.47V12.659H121.381ZM122.452 6.4545C122.452 6.99001 122.53 7.46243 122.687 7.87176C122.844 8.27801 123.074 8.59655 123.375 8.82737C123.677 9.05512 124.046 9.16899 124.483 9.16899C124.939 9.16899 125.319 9.04896 125.623 8.8089C125.931 8.56577 126.162 8.23954 126.316 7.83021C126.473 7.41781 126.551 6.95924 126.551 6.4545C126.551 5.95592 126.474 5.50658 126.321 5.10649C126.17 4.70332 125.94 4.38478 125.633 4.15088C125.328 3.9139 124.945 3.79541 124.483 3.79541C124.04 3.79541 123.668 3.90774 123.366 4.13241C123.064 4.354 122.837 4.66485 122.683 5.06494C122.529 5.46196 122.452 5.92514 122.452 6.4545Z" fill="white"/>
<path d="M131.389 10.1661C130.94 10.1661 130.532 10.0815 130.166 9.91224C129.8 9.73989 129.509 9.49214 129.294 9.16899C129.078 8.84276 128.97 8.44882 128.97 7.98717C128.97 7.58092 129.05 7.25161 129.21 6.99925C129.371 6.7438 129.584 6.54375 129.852 6.3991C130.12 6.25445 130.415 6.14674 130.739 6.07595C131.065 6.00209 131.393 5.94361 131.722 5.90052C132.153 5.84513 132.502 5.80358 132.77 5.77588C133.041 5.7451 133.238 5.69432 133.361 5.62354C133.487 5.55275 133.55 5.42964 133.55 5.25422V5.21729C133.55 4.76179 133.425 4.40786 133.176 4.1555C132.93 3.90313 132.556 3.77694 132.054 3.77694C131.534 3.77694 131.126 3.89082 130.831 4.11856C130.535 4.34631 130.328 4.58944 130.208 4.84797L129.174 4.47865C129.358 4.04778 129.604 3.71231 129.912 3.47226C130.223 3.22912 130.562 3.05985 130.928 2.96444C131.297 2.86596 131.66 2.81672 132.017 2.81672C132.245 2.81672 132.507 2.84442 132.802 2.89981C133.101 2.95213 133.388 3.06139 133.665 3.22758C133.945 3.39378 134.178 3.64461 134.362 3.98007C134.547 4.31553 134.639 4.76487 134.639 5.32808V9.99996H133.55V9.03973H133.495C133.421 9.19361 133.298 9.35827 133.125 9.53369C132.953 9.70912 132.724 9.85838 132.437 9.98149C132.151 10.1046 131.802 10.1661 131.389 10.1661ZM131.556 9.18746C131.987 9.18746 132.35 9.10282 132.645 8.93355C132.944 8.76428 133.168 8.54577 133.319 8.27801C133.473 8.01025 133.55 7.72865 133.55 7.43319V6.43604C133.504 6.49143 133.402 6.54221 133.245 6.58838C133.091 6.63147 132.913 6.66994 132.71 6.70379C132.51 6.73457 132.314 6.76227 132.123 6.78689C131.936 6.80843 131.783 6.8269 131.666 6.84229C131.383 6.87922 131.119 6.93923 130.872 7.02233C130.629 7.10235 130.432 7.22391 130.282 7.38703C130.134 7.54707 130.06 7.76558 130.06 8.04257C130.06 8.42112 130.2 8.70734 130.48 8.90123C130.763 9.09205 131.122 9.18746 131.556 9.18746Z" fill="white"/>
<path d="M137.718 5.73433V9.99996H136.628V2.90905H137.681V4.017H137.773C137.939 3.65692 138.191 3.36762 138.53 3.1491C138.869 2.92751 139.306 2.81672 139.841 2.81672C140.321 2.81672 140.741 2.9152 141.101 3.11217C141.461 3.30606 141.742 3.60152 141.942 3.99854C142.142 4.39247 142.242 4.89105 142.242 5.49427V9.99996H141.152V5.56814C141.152 5.01108 141.008 4.57713 140.718 4.26629C140.429 3.95237 140.032 3.79541 139.527 3.79541C139.179 3.79541 138.869 3.87081 138.595 4.02162C138.324 4.17242 138.11 4.39247 137.953 4.68177C137.796 4.97107 137.718 5.32193 137.718 5.73433Z" fill="white"/>
</svg>
